<svg width="50" height="49" viewBox="0 0 50 49" fill="none" xmlns="http://www.w3.org/2000/svg">
<ellipse cx="25.2556" cy="24.2555" rx="24.7234" ry="23.8404" fill="#353255"/>
<g clip-path="url(#clip0_8428_782)">
<path d="M40.001 23.3096V25.3193C40.001 25.8559 39.5721 26.2949 39.0262 26.3145H37.1155C36.0627 26.3145 35.0976 25.5437 35.0099 24.4901C34.9514 23.8754 35.1853 23.2998 35.5948 22.8998C35.9555 22.5291 36.4526 22.3145 36.9985 22.3145H39.0262C39.5721 22.334 40.001 22.773 40.001 23.3096Z" fill="#C8EE44"/>
<path d="M38.4712 27.3645H36.9638C34.9609 27.3645 33.2742 25.9345 33.1056 24.1145C33.0107 23.0745 33.4113 22.0345 34.2124 21.2945C34.8871 20.6345 35.8253 20.2645 36.8373 20.2645H38.4712C38.7769 20.2645 39.0299 20.0245 38.9983 19.7345C38.7664 17.3045 37.0692 15.6445 34.5498 15.3645C34.2968 15.3245 34.0332 15.3145 33.7591 15.3145H24.2718C23.9766 15.3145 23.692 15.3345 23.4179 15.3745C20.7298 15.6945 19.001 17.5945 19.001 20.3145V27.3145C19.001 30.0745 21.3623 32.3145 24.2718 32.3145H33.7591C36.7108 32.3145 38.7453 30.5645 38.9983 27.8945C39.0299 27.6045 38.7769 27.3645 38.4712 27.3645ZM30.5967 21.5645H24.2718C23.8395 21.5645 23.4811 21.2245 23.4811 20.8145C23.4811 20.4045 23.8395 20.0645 24.2718 20.0645H30.5967C31.0289 20.0645 31.3873 20.4045 31.3873 20.8145C31.3873 21.2245 31.0289 21.5645 30.5967 21.5645Z" fill="#FFFFFE"/>
</g>
<defs>
<clipPath id="clip0_8428_782">
<rect width="29.1237" height="28.362" fill="white" transform="translate(10.8477 10.2832)"/>
</clipPath>
</defs>
</svg>
