<svg width="24" height="24" viewBox="0 0 24 24" fill="none" xmlns="http://www.w3.org/2000/svg">
<path d="M19.6667 4.66602H7C6.73478 4.66602 6.48043 4.77137 6.29289 4.95891C6.10536 5.14645 6 5.4008 6 5.66602V21.666C6 21.9312 6.10536 22.1856 6.29289 22.3731C6.48043 22.5607 6.73478 22.666 7 22.666H19.6667C19.9319 22.666 20.1862 22.5607 20.3738 22.3731C20.5613 22.1856 20.6667 21.9312 20.6667 21.666V5.66602C20.6667 5.4008 20.5613 5.14645 20.3738 4.95891C20.1862 4.77137 19.9319 4.66602 19.6667 4.66602ZM19.3333 21.3327H7.33333V5.99935H19.3333V21.3327Z" fill="#0B0230"/>
<path d="M17.3327 2.33398C17.3327 2.06877 17.2273 1.81441 17.0398 1.62688C16.8523 1.43934 16.5979 1.33398 16.3327 1.33398H3.66602C3.4008 1.33398 3.14645 1.43934 2.95891 1.62688C2.77137 1.81441 2.66602 2.06877 2.66602 2.33398V18.334C2.66602 18.5992 2.77137 18.8536 2.95891 19.0411C3.14645 19.2286 3.4008 19.334 3.66602 19.334H3.99935V2.66732H17.3327V2.33398Z" fill="#0B0230"/>
</svg>
