<svg width="70" height="70" viewBox="0 0 70 70" fill="none" xmlns="http://www.w3.org/2000/svg">
<g clip-path="url(#clip0_8428_872)">
<path d="M35 70C54.33 70 70 54.33 70 35C70 15.67 54.33 0 35 0C15.67 0 0 15.67 0 35C0 54.33 15.67 70 35 70Z" fill="#1C98F7"/>
<path fill-rule="evenodd" clip-rule="evenodd" d="M35.6125 51.0234C37.1518 50.9165 38.6778 50.6675 40.1713 50.2797C42.0143 50.8421 43.9626 50.9694 45.8631 50.6516C45.9383 50.6394 46.0144 50.6336 46.0906 50.6341C46.7687 50.6341 47.6591 51.0278 48.9562 51.8591V50.4919C48.9565 50.2553 49.0197 50.0231 49.1392 49.819C49.2587 49.6149 49.4304 49.4463 49.6366 49.3303C50.2009 49.0109 50.7259 48.6434 51.205 48.2388C53.095 46.6375 54.1625 44.5025 54.1625 42.2406C54.1625 41.4816 54.0422 40.7444 53.8147 40.04C54.3856 38.9747 54.8472 37.8547 55.1863 36.6931C56.2825 38.336 56.8699 40.2656 56.875 42.2406C56.875 45.3141 55.4444 48.1797 52.9703 50.2753C52.5574 50.6248 52.1226 50.9478 51.6688 51.2422V54.4381C51.6688 55.5384 50.4 56.1706 49.5053 55.5166C48.6593 54.8841 47.7833 54.2928 46.8803 53.7447C46.6217 53.5899 46.3528 53.4532 46.0753 53.3356C45.3316 53.4472 44.5703 53.5041 43.8025 53.5041C40.7138 53.5041 37.8591 52.5788 35.6125 51.0234ZM19.2806 44.6316C15.3781 41.3219 13.125 36.8134 13.125 31.9812C13.125 22.1091 22.4394 14.2188 33.8122 14.2188C45.1872 14.2188 54.5016 22.1091 54.5016 31.9812C54.5016 41.8556 45.185 49.7459 33.8122 49.7459C32.5347 49.7459 31.2703 49.6475 30.0322 49.4506C29.4963 49.5775 27.3547 50.8506 24.2681 53.1037C23.1503 53.9219 21.5644 53.1322 21.5644 51.7562V46.305C20.7651 45.8011 20.002 45.2419 19.2806 44.6316ZM30.1066 46.0884C30.2006 46.0884 30.2969 46.095 30.3909 46.1103C31.5066 46.2984 32.6528 46.3947 33.8122 46.3947C43.4197 46.3947 51.1087 39.8803 51.1087 31.9812C51.1087 24.0844 43.4197 17.57 33.8122 17.57C24.2091 17.57 16.5156 24.0844 16.5156 31.9812C16.5156 35.8006 18.3116 39.3969 21.4878 42.0875C22.2863 42.7612 23.1634 43.3738 24.1041 43.9075C24.6313 44.205 24.9572 44.7606 24.9572 45.36V48.5034C27.3984 46.865 29.0041 46.0884 30.1066 46.0884ZM24.9944 35.3347C23.4959 35.3347 22.2819 34.1316 22.2819 32.6528C22.2819 31.1719 23.4959 29.9709 24.9944 29.9709C26.4928 29.9709 27.7069 31.1719 27.7069 32.6528C27.7069 34.1338 26.4928 35.3347 24.9944 35.3347ZM33.8122 35.3347C32.3137 35.3347 31.0997 34.1316 31.0997 32.6528C31.0997 31.1719 32.3137 29.9709 33.8122 29.9709C35.3106 29.9709 36.5247 31.1719 36.5247 32.6528C36.5247 34.1338 35.3106 35.3347 33.8122 35.3347ZM42.63 35.3347C41.1316 35.3347 39.9175 34.1316 39.9175 32.6528C39.9175 31.1719 41.1316 29.9709 42.63 29.9709C44.1284 29.9709 45.3425 31.1719 45.3425 32.6528C45.3425 34.1338 44.1284 35.3347 42.63 35.3347Z" fill="white"/>
</g>
<defs>
<clipPath id="clip0_8428_872">
<rect width="70" height="70" fill="white"/>
</clipPath>
</defs>
</svg>
