<svg width="207" height="32" viewBox="0 0 207 32" fill="none" xmlns="http://www.w3.org/2000/svg">
<path d="M65.0674 22.8298H79.9958V18.686H70.6655V7.29584H65.0674V22.8298Z" fill="white"/>
<path d="M90.2878 23.177C93.2477 23.177 96.079 22.5044 97.5804 21.5281L96.1862 19.0982C95.0494 19.7491 92.8402 20.2264 90.6524 20.2264C88.5718 20.2264 86.6414 19.7057 86.0623 18.404H97.6447C97.752 18.0351 97.7949 17.5578 97.7949 17.2324C97.7949 13.6309 94.4703 11.2661 89.4298 11.2661C84.3035 11.2661 80.7216 13.7177 80.7216 17.2107C80.7216 20.8556 84.5824 23.177 90.2878 23.177ZM85.9765 16.2127C86.1696 14.9544 87.5638 14.0649 89.3869 14.0649C91.1672 14.0649 92.6257 14.9327 92.69 16.2127H85.9765Z" fill="white"/>
<path d="M103.451 22.8298H109.95L115.998 11.635H110.615L106.754 19.684H106.732L102.872 11.635H97.4879L103.451 22.8298Z" fill="white"/>
<path d="M125.1 23.177C128.06 23.177 130.892 22.5044 132.393 21.5281L130.999 19.0982C129.862 19.7491 127.653 20.2264 125.465 20.2264C123.384 20.2264 121.454 19.7057 120.875 18.404H132.457C132.565 18.0351 132.607 17.5578 132.607 17.2324C132.607 13.6309 129.283 11.2661 124.242 11.2661C119.116 11.2661 115.534 13.7177 115.534 17.2107C115.534 20.8556 119.395 23.177 125.1 23.177ZM120.789 16.2127C120.982 14.9544 122.376 14.0649 124.199 14.0649C125.98 14.0649 127.438 14.9327 127.503 16.2127H120.789Z" fill="white"/>
<path d="M143.667 11.2661C141.672 11.2661 139.87 12.3943 139.055 14.2167H139.034L138.347 11.635H134.122V22.8298H139.205V17.8399C139.205 15.7137 140.063 14.3686 141.5 14.3686C142.551 14.3686 143.281 15.4317 143.366 17.1022L147.999 16.191C147.828 13.197 146.133 11.2661 143.667 11.2661Z" fill="white"/>
<path d="M149.271 22.8298H154.869V18.0785H161.604C165.98 18.0785 168.403 16.191 168.425 12.7631C168.425 9.24844 166.001 7.29584 161.647 7.29584H149.271V22.8298ZM154.869 14.8893V10.4851H159.781C161.733 10.4851 162.805 11.2661 162.805 12.6763C162.805 14.1082 161.733 14.8893 159.781 14.8893H154.869Z" fill="white"/>
<path d="M174.501 23.177C177.547 23.177 179.971 22.1139 181.064 20.3999H181.086L181.772 22.8298H186.169V15.5835C186.169 12.8282 182.952 11.2661 178.083 11.2661C174.587 11.2661 171.112 12.2207 168.967 13.696L170.297 16.3646C172.399 14.9978 175.402 14.1299 178.083 14.1299C179.949 14.1299 181.172 14.5422 181.172 15.0845C181.172 15.3015 180.893 15.4751 180.421 15.5185L176.196 15.909C171.606 16.3429 168.924 17.8616 168.924 20.0962C168.924 22.0488 170.984 23.177 174.501 23.177ZM176.303 20.1396C174.801 20.1396 174.008 19.8142 174.008 19.2501C174.008 18.6643 174.887 18.3389 176.539 18.2087L181.086 17.7965V17.8399C181.086 19.2067 179.177 20.1396 176.303 20.1396Z" fill="white"/>
<path d="M194.051 27.733C200.186 27.733 204.196 24.956 204.196 20.7037V11.635H199.135V16.3212C199.135 18.4474 197.762 19.8142 195.703 19.8142C193.922 19.8142 192.743 18.5558 192.743 16.6466V11.635H187.659L187.638 17.189C187.638 20.465 189.997 22.8298 193.644 22.8298C196.282 22.8298 198.427 21.5715 199.113 19.6406H199.135V20.465C199.135 22.6563 196.99 24.0882 193.708 24.0882C191.692 24.0882 189.354 23.3505 187.724 22.4393L186.158 25.7587C187.895 26.8435 191.048 27.733 194.051 27.733Z" fill="white"/>
<path d="M203.695 3.19971L206.934 13.5123L196.485 11.1931L203.695 3.19971Z" fill="white"/>
<path d="M20.8379 0.7325C14.3347 2.77133 9.61749 8.83578 9.61749 16C9.61749 23.1642 14.3347 29.2287 20.8379 31.2675C19.3199 31.7434 17.7045 32 16.0291 32C7.17649 32 0 24.8366 0 16C0 7.16344 7.17649 0 16.0291 0C17.7045 0 19.3199 0.256602 20.8379 0.7325Z" fill="white"/>
<path d="M44.2404 16C44.2404 24.8366 37.0639 32 28.2113 32C19.3586 32 12.1821 24.8366 12.1821 16C12.1821 7.16344 19.3586 0 28.2113 0C37.0639 0 44.2404 7.16344 44.2404 16Z" fill="white"/>
<path d="M46.4845 16C46.4845 8.83578 41.7673 2.77129 35.2641 0.7325C36.7822 0.256563 38.3975 0 40.0729 0C45.6138 0 50.4981 2.80637 53.3771 7.07285C51.6564 9.62281 50.6521 12.6943 50.6521 16C50.6521 19.3057 51.6564 22.3772 53.3771 24.9271C50.4981 29.1936 45.6138 32 40.0729 32C38.3975 32 36.7822 31.7434 35.2641 31.2675C41.7673 29.2287 46.4845 23.1642 46.4845 16Z" fill="white"/>
<path d="M55.9417 7.07285C54.2211 9.62281 53.2168 12.6943 53.2168 16C53.2168 19.3057 54.2211 22.3772 55.9417 24.9271C57.6624 22.3772 58.6667 19.3057 58.6667 16C58.6667 12.6943 57.6624 9.62281 55.9417 7.07285Z" fill="white"/>
</svg>
