<svg width="23" height="23" viewBox="0 0 23 23" fill="none" xmlns="http://www.w3.org/2000/svg">
<path d="M21.1875 22.5C18.5 22.5 15.8804 21.9062 13.3288 20.7188C10.7771 19.5313 8.51667 17.9479 6.5475 15.9688C4.57833 13.9896 2.995 11.7238 1.7975 9.17125C0.6 6.61875 0.000833333 3.99917 0 1.3125V0.65625C0 0.427083 0.0208333 0.208333 0.0624999 0H7.375L8.53125 6.28125L4.96875 9.875C5.84375 11.375 6.94292 12.7812 8.26625 14.0938C9.58958 15.4062 11.0425 16.5417 12.625 17.5L16.25 13.875L22.5 15.125V22.4375C22.2917 22.4583 22.0729 22.4742 21.8438 22.485C21.6146 22.4958 21.3958 22.5008 21.1875 22.5Z" fill="white"/>
</svg>
