<svg width="314" height="25" viewBox="0 0 314 25" fill="none" xmlns="http://www.w3.org/2000/svg">
<path d="M19.5 7.5H16.5V5.25C16.5 4.05653 16.0259 2.91193 15.182 2.06802C14.3381 1.22411 13.1935 0.75 12 0.75C10.8065 0.75 9.66193 1.22411 8.81802 2.06802C7.97411 2.91193 7.5 4.05653 7.5 5.25V7.5H4.5C4.10218 7.5 3.72064 7.65804 3.43934 7.93934C3.15804 8.22064 3 8.60218 3 9V19.5C3 19.8978 3.15804 20.2794 3.43934 20.5607C3.72064 20.842 4.10218 21 4.5 21H19.5C19.8978 21 20.2794 20.842 20.5607 20.5607C20.842 20.2794 21 19.8978 21 19.5V9C21 8.60218 20.842 8.22064 20.5607 7.93934C20.2794 7.65804 19.8978 7.5 19.5 7.5ZM9 5.25C9 4.45435 9.31607 3.69129 9.87868 3.12868C10.4413 2.56607 11.2044 2.25 12 2.25C12.7956 2.25 13.5587 2.56607 14.1213 3.12868C14.6839 3.69129 15 4.45435 15 5.25V7.5H9V5.25Z" fill="white"/>
<path d="M32.54 20.28C31.74 20.28 30.9733 20.2133 30.24 20.08C29.5067 19.96 28.84 19.7867 28.24 19.56C27.64 19.32 27.1267 19.06 26.7 18.78L28.26 15.82C28.74 16.1133 29.2333 16.3667 29.74 16.58C30.26 16.78 30.7867 16.9333 31.32 17.04C31.8533 17.1467 32.3867 17.2 32.92 17.2C33.4267 17.2 33.86 17.1533 34.22 17.06C34.58 16.9533 34.8533 16.8067 35.04 16.62C35.2267 16.4333 35.32 16.2133 35.32 15.96C35.32 15.68 35.1933 15.46 34.94 15.3C34.7 15.1267 34.38 14.98 33.98 14.86C33.58 14.74 33.1333 14.62 32.64 14.5C32.16 14.3667 31.6733 14.2133 31.18 14.04C30.7 13.8533 30.26 13.6267 29.86 13.36C29.46 13.08 29.1333 12.7267 28.88 12.3C28.64 11.8733 28.52 11.3467 28.52 10.72C28.52 9.70667 28.7933 8.82667 29.34 8.08C29.8867 7.33333 30.66 6.75333 31.66 6.34C32.6733 5.92667 33.8667 5.72 35.24 5.72C36.24 5.72 37.1733 5.82667 38.04 6.04C38.9067 6.24 39.6533 6.53333 40.28 6.92L38.84 9.86C38.2933 9.51333 37.6867 9.25333 37.02 9.08C36.3667 8.89333 35.6933 8.8 35 8.8C34.4667 8.8 34.0067 8.86 33.62 8.98C33.2467 9.1 32.96 9.26667 32.76 9.48C32.5733 9.68 32.48 9.90667 32.48 10.16C32.48 10.4267 32.6 10.6467 32.84 10.82C33.08 10.9933 33.4 11.14 33.8 11.26C34.2133 11.38 34.66 11.5067 35.14 11.64C35.6333 11.76 36.12 11.9067 36.6 12.08C37.08 12.24 37.5267 12.46 37.94 12.74C38.3533 13.0067 38.68 13.3467 38.92 13.76C39.16 14.1733 39.28 14.6867 39.28 15.3C39.28 16.3 39.0067 17.1733 38.46 17.92C37.9133 18.6667 37.1333 19.2467 36.12 19.66C35.1067 20.0733 33.9133 20.28 32.54 20.28ZM46.2092 20.18C45.0492 20.18 44.0359 19.98 43.1692 19.58C42.3159 19.1667 41.6492 18.5933 41.1692 17.86C40.6892 17.1133 40.4492 16.24 40.4492 15.24C40.4492 14.04 40.7226 12.9733 41.2692 12.04C41.8159 11.0933 42.5826 10.3467 43.5692 9.8C44.5559 9.25333 45.7026 8.98 47.0092 8.98C48.1159 8.98 49.0626 9.18 49.8492 9.58C50.6492 9.98 51.2626 10.54 51.6892 11.26C52.1292 11.9667 52.3492 12.7933 52.3492 13.74C52.3492 14.06 52.3292 14.3667 52.2892 14.66C52.2492 14.9533 52.1959 15.24 52.1292 15.52H43.4292L43.7892 13.52H50.3692L48.7892 14.1C48.8959 13.58 48.8759 13.1467 48.7292 12.8C48.5959 12.44 48.3626 12.1667 48.0292 11.98C47.7092 11.78 47.3092 11.68 46.8292 11.68C46.2159 11.68 45.7092 11.8333 45.3092 12.14C44.9226 12.4467 44.6292 12.8667 44.4292 13.4C44.2426 13.92 44.1492 14.4867 44.1492 15.1C44.1492 15.8467 44.3559 16.4 44.7692 16.76C45.1826 17.1067 45.8026 17.28 46.6292 17.28C47.1092 17.28 47.5759 17.2067 48.0292 17.06C48.4959 16.9 48.9026 16.68 49.2492 16.4L50.8292 18.78C50.1492 19.2867 49.4092 19.6467 48.6092 19.86C47.8226 20.0733 47.0226 20.18 46.2092 20.18ZM58.9031 20.18C57.7431 20.18 56.7365 19.9733 55.8831 19.56C55.0298 19.1467 54.3631 18.5733 53.8831 17.84C53.4165 17.0933 53.1831 16.2267 53.1831 15.24C53.1831 14.04 53.4698 12.9733 54.0431 12.04C54.6165 11.0933 55.4098 10.3467 56.4231 9.8C57.4365 9.25333 58.5965 8.98 59.9031 8.98C61.1298 8.98 62.1898 9.24 63.0831 9.76C63.9898 10.28 64.6431 11 65.0431 11.92L61.8031 13.46C61.6031 12.9533 61.3165 12.5867 60.9431 12.36C60.5831 12.1333 60.1698 12.02 59.7031 12.02C59.1965 12.02 58.7365 12.1533 58.3231 12.42C57.9231 12.6733 57.6098 13.02 57.3831 13.46C57.1565 13.9 57.0431 14.42 57.0431 15.02C57.0431 15.6467 57.2231 16.1533 57.5831 16.54C57.9431 16.9267 58.4698 17.12 59.1631 17.12C59.6565 17.12 60.0965 17.0133 60.4831 16.8C60.8831 16.5733 61.2231 16.2067 61.5031 15.7L64.2831 17.38C63.7631 18.26 63.0298 18.9467 62.0831 19.44C61.1498 19.9333 60.0898 20.18 58.9031 20.18ZM69.5344 20.18C68.6544 20.18 67.8877 19.9933 67.2344 19.62C66.5944 19.2333 66.141 18.6667 65.8744 17.92C65.6077 17.1733 65.581 16.2467 65.7944 15.14L66.9944 9.16H70.7944L69.6744 14.78C69.5277 15.4733 69.5677 16.0067 69.7944 16.38C70.0344 16.7533 70.4544 16.94 71.0544 16.94C71.6944 16.94 72.2277 16.7467 72.6544 16.36C73.0944 15.96 73.3944 15.3467 73.5544 14.52L74.6344 9.16H78.4344L76.2744 20H72.6744L73.2944 16.94L73.7744 17.82C73.2544 18.6333 72.6144 19.2333 71.8544 19.62C71.1077 19.9933 70.3344 20.18 69.5344 20.18ZM78.722 20L80.882 9.16H84.482L83.862 12.24L83.502 11.36C83.982 10.4933 84.6154 9.88 85.402 9.52C86.1887 9.16 87.1087 8.98 88.162 8.98L87.502 12.4C87.342 12.3733 87.1954 12.36 87.062 12.36C86.9287 12.3467 86.7887 12.34 86.642 12.34C85.8154 12.34 85.1354 12.54 84.602 12.94C84.082 13.3267 83.7354 13.9733 83.562 14.88L82.522 20H78.722ZM93.5725 20.18C92.4125 20.18 91.3992 19.98 90.5325 19.58C89.6792 19.1667 89.0125 18.5933 88.5325 17.86C88.0525 17.1133 87.8125 16.24 87.8125 15.24C87.8125 14.04 88.0858 12.9733 88.6325 12.04C89.1792 11.0933 89.9458 10.3467 90.9325 9.8C91.9192 9.25333 93.0658 8.98 94.3725 8.98C95.4792 8.98 96.4258 9.18 97.2125 9.58C98.0125 9.98 98.6258 10.54 99.0525 11.26C99.4925 11.9667 99.7125 12.7933 99.7125 13.74C99.7125 14.06 99.6925 14.3667 99.6525 14.66C99.6125 14.9533 99.5592 15.24 99.4925 15.52H90.7925L91.1525 13.52H97.7325L96.1525 14.1C96.2592 13.58 96.2392 13.1467 96.0925 12.8C95.9592 12.44 95.7258 12.1667 95.3925 11.98C95.0725 11.78 94.6725 11.68 94.1925 11.68C93.5792 11.68 93.0725 11.8333 92.6725 12.14C92.2858 12.4467 91.9925 12.8667 91.7925 13.4C91.6058 13.92 91.5125 14.4867 91.5125 15.1C91.5125 15.8467 91.7192 16.4 92.1325 16.76C92.5458 17.1067 93.1658 17.28 93.9925 17.28C94.4725 17.28 94.9392 17.2067 95.3925 17.06C95.8592 16.9 96.2658 16.68 96.6125 16.4L98.1925 18.78C97.5125 19.2867 96.7725 19.6467 95.9725 19.86C95.1858 20.0733 94.3858 20.18 93.5725 20.18ZM105.206 20.18C104.433 20.18 103.693 19.9867 102.986 19.6C102.293 19.2133 101.726 18.6533 101.286 17.92C100.846 17.1867 100.626 16.2933 100.626 15.24C100.626 14.3333 100.78 13.5 101.086 12.74C101.393 11.98 101.813 11.32 102.346 10.76C102.893 10.2 103.52 9.76667 104.226 9.46C104.946 9.14 105.713 8.98 106.526 8.98C107.313 8.98 108 9.11333 108.586 9.38C109.186 9.64667 109.653 10.08 109.986 10.68C110.32 11.2667 110.486 12.04 110.486 13C110.486 13.96 110.373 14.8733 110.146 15.74C109.92 16.5933 109.58 17.3533 109.126 18.02C108.686 18.6867 108.133 19.2133 107.466 19.6C106.813 19.9867 106.06 20.18 105.206 20.18ZM106.526 17.12C107.046 17.12 107.493 16.9933 107.866 16.74C108.253 16.4867 108.553 16.1333 108.766 15.68C108.993 15.2267 109.106 14.7 109.106 14.1C109.106 13.4733 108.926 12.9733 108.566 12.6C108.206 12.2133 107.706 12.02 107.066 12.02C106.573 12.02 106.126 12.1533 105.726 12.42C105.34 12.6733 105.033 13.0267 104.806 13.48C104.593 13.9333 104.486 14.46 104.486 15.06C104.486 15.6867 104.666 16.1867 105.026 16.56C105.386 16.9333 105.886 17.12 106.526 17.12ZM108.126 20L108.506 18.18L109.206 14.6L109.706 11.02L110.886 5.16H114.686L111.726 20H108.126ZM119.992 20L122.952 5.16H126.752L125.592 11L124.672 14.54L124.092 17.56L123.612 20H119.992ZM127.372 20.18C126.598 20.18 125.912 20.0467 125.312 19.78C124.712 19.5 124.245 19.0667 123.912 18.48C123.578 17.88 123.412 17.1067 123.412 16.16C123.412 15.2 123.525 14.2933 123.752 13.44C123.978 12.5733 124.312 11.8067 124.752 11.14C125.205 10.4733 125.758 9.94667 126.412 9.56C127.065 9.17333 127.818 8.98 128.672 8.98C129.458 8.98 130.198 9.17333 130.892 9.56C131.598 9.94667 132.165 10.5067 132.592 11.24C133.032 11.96 133.252 12.8467 133.252 13.9C133.252 14.8067 133.098 15.64 132.792 16.4C132.485 17.16 132.058 17.8267 131.512 18.4C130.978 18.96 130.358 19.4 129.652 19.72C128.945 20.0267 128.185 20.18 127.372 20.18ZM126.832 17.12C127.338 17.12 127.785 16.9933 128.172 16.74C128.558 16.4867 128.858 16.1333 129.072 15.68C129.298 15.2267 129.412 14.7 129.412 14.1C129.412 13.4733 129.232 12.9733 128.872 12.6C128.512 12.2133 128.005 12.02 127.352 12.02C126.858 12.02 126.412 12.1533 126.012 12.42C125.625 12.6733 125.318 13.0267 125.092 13.48C124.878 13.9333 124.772 14.46 124.772 15.06C124.772 15.6867 124.952 16.1867 125.312 16.56C125.672 16.9333 126.178 17.12 126.832 17.12ZM134.865 24.06C134.292 24.06 133.725 23.9733 133.165 23.8C132.592 23.6267 132.138 23.4 131.805 23.12L133.505 20.44C133.732 20.6267 133.985 20.7733 134.265 20.88C134.545 21 134.852 21.06 135.185 21.06C135.558 21.06 135.878 20.9667 136.145 20.78C136.412 20.5933 136.665 20.3 136.905 19.9L137.685 18.64L138.005 18.26L143.465 9.16H147.185L140.245 20.48C139.685 21.4 139.138 22.12 138.605 22.64C138.072 23.16 137.505 23.5267 136.905 23.74C136.305 23.9533 135.625 24.06 134.865 24.06ZM136.865 20.46L134.325 9.16H138.105L139.905 17.92L136.865 20.46Z" fill="white"/>
<path d="M207.052 17.2101H218.306V14.0862H211.272V5.49955H207.052V17.2101Z" fill="white"/>
<path d="M226.065 17.4718C228.296 17.4718 230.43 16.9648 231.562 16.2288L230.511 14.3969C229.654 14.8876 227.989 15.2474 226.339 15.2474C224.771 15.2474 223.316 14.8549 222.879 13.8736H231.611C231.692 13.5955 231.724 13.2357 231.724 12.9904C231.724 10.2754 229.218 8.49261 225.418 8.49261C221.553 8.49261 218.853 10.3408 218.853 12.974C218.853 15.7217 221.763 17.4718 226.065 17.4718ZM222.814 12.2217C222.96 11.273 224.011 10.6025 225.385 10.6025C226.727 10.6025 227.827 11.2567 227.876 12.2217H222.814Z" fill="white"/>
<path d="M235.988 17.2101H240.887L245.447 8.77066H241.388L238.478 14.8385H238.462L235.551 8.77066H231.492L235.988 17.2101Z" fill="white"/>
<path d="M252.308 17.4718C254.54 17.4718 256.674 16.9648 257.806 16.2288L256.755 14.3969C255.898 14.8876 254.233 15.2474 252.583 15.2474C251.015 15.2474 249.56 14.8549 249.123 13.8736H257.855C257.935 13.5955 257.968 13.2357 257.968 12.9904C257.968 10.2754 255.462 8.49261 251.662 8.49261C247.797 8.49261 245.097 10.3408 245.097 12.974C245.097 15.7217 248.007 17.4718 252.308 17.4718ZM249.058 12.2217C249.204 11.273 250.255 10.6025 251.629 10.6025C252.971 10.6025 254.071 11.2567 254.119 12.2217H249.058Z" fill="white"/>
<path d="M266.305 8.49261C264.801 8.49261 263.443 9.3431 262.829 10.717H262.812L262.295 8.77066H259.11V17.2101H262.942V13.4483C262.942 11.8455 263.589 10.8314 264.672 10.8314C265.464 10.8314 266.014 11.6329 266.079 12.8922L269.571 12.2053C269.442 9.94825 268.165 8.49261 266.305 8.49261Z" fill="white"/>
<path d="M270.53 17.2101H274.75V13.6282H279.827C283.126 13.6282 284.953 12.2053 284.969 9.62114C284.969 6.97155 283.142 5.49955 279.86 5.49955H270.53V17.2101ZM274.75 11.224V7.90381H278.453C279.924 7.90381 280.733 8.49261 280.733 9.55572C280.733 10.6352 279.924 11.224 278.453 11.224H274.75Z" fill="white"/>
<path d="M289.55 17.4718C291.846 17.4718 293.673 16.6704 294.498 15.3783H294.514L295.032 17.2101H298.346V11.7474C298.346 9.67021 295.921 8.49261 292.25 8.49261C289.615 8.49261 286.995 9.21225 285.378 10.3244L286.381 12.3362C287.965 11.3058 290.229 10.6515 292.25 10.6515C293.657 10.6515 294.579 10.9623 294.579 11.3712C294.579 11.5347 294.369 11.6656 294.013 11.6983L290.827 11.9927C287.367 12.3198 285.346 13.4647 285.346 15.1493C285.346 16.6213 286.898 17.4718 289.55 17.4718ZM290.908 15.182C289.776 15.182 289.178 14.9367 289.178 14.5114C289.178 14.0698 289.841 13.8245 291.086 13.7264L294.514 13.4156V13.4483C294.514 14.4787 293.075 15.182 290.908 15.182Z" fill="white"/>
<path d="M304.288 20.9064C308.913 20.9064 311.936 18.8129 311.936 15.6073V8.77066H308.12V12.3034C308.12 13.9063 307.085 14.9367 305.533 14.9367C304.191 14.9367 303.302 13.9881 303.302 12.5488V8.77066H299.47L299.453 12.9577C299.453 15.4273 301.232 17.2101 303.981 17.2101C305.97 17.2101 307.587 16.2615 308.104 14.8058H308.12V15.4273C308.12 17.0793 306.503 18.1587 304.029 18.1587C302.509 18.1587 300.747 17.6026 299.518 16.9157L298.338 19.4181C299.647 20.2359 302.024 20.9064 304.288 20.9064Z" fill="white"/>
<path d="M311.558 2.41162L314 10.1859L306.123 8.43756L311.558 2.41162Z" fill="white"/>
<path d="M173.709 0.552206C168.806 2.08921 165.25 6.66099 165.25 12.0618C165.25 17.4627 168.806 22.0345 173.709 23.5715C172.565 23.9302 171.347 24.1237 170.084 24.1237C163.41 24.1237 158 18.7234 158 12.0618C158 5.40026 163.41 0 170.084 0C171.347 0 172.565 0.193443 173.709 0.552206Z" fill="white"/>
<path d="M191.351 12.0618C191.351 18.7234 185.941 24.1237 179.268 24.1237C172.594 24.1237 167.184 18.7234 167.184 12.0618C167.184 5.40027 172.594 0 179.268 0C185.941 0 191.351 5.40027 191.351 12.0618Z" fill="white"/>
<path d="M193.043 12.0618C193.043 6.66099 189.487 2.08918 184.584 0.552206C185.729 0.193413 186.947 0 188.21 0C192.387 0 196.069 2.11562 198.239 5.33198C196.942 7.2543 196.185 9.56982 196.185 12.0618C196.185 14.5539 196.942 16.8694 198.239 18.7917C196.069 22.0081 192.387 24.1237 188.21 24.1237C186.947 24.1237 185.729 23.9303 184.584 23.5715C189.487 22.0345 193.043 17.4627 193.043 12.0618Z" fill="white"/>
<path d="M200.173 5.33198C198.875 7.2543 198.118 9.56981 198.118 12.0618C198.118 14.5539 198.875 16.8694 200.173 18.7917C201.47 16.8694 202.227 14.5539 202.227 12.0618C202.227 9.56981 201.47 7.2543 200.173 5.33198Z" fill="white"/>
</svg>
