<svg width="16" height="14" viewBox="0 0 16 14" fill="none" xmlns="http://www.w3.org/2000/svg">
<path d="M1.33699 5.85205C5.41886 4.07405 8.14011 2.90177 9.50074 2.33543C13.3901 0.718208 14.1973 0.437333 14.7245 0.427817C14.8404 0.425958 15.0985 0.454614 15.267 0.590786C15.407 0.70563 15.4464 0.860942 15.466 0.969989C15.4835 1.07893 15.5076 1.32721 15.4879 1.52102C15.2779 3.73477 14.3657 9.10683 13.902 11.5864C13.7073 12.6355 13.3201 12.9872 12.9461 13.0216C12.1323 13.0964 11.5154 12.4843 10.7279 11.9683C9.49636 11.1605 8.80074 10.6578 7.60418 9.86961C6.22168 8.95874 7.11855 8.45802 7.90605 7.6399C8.11168 7.42574 11.6948 4.16746 11.7626 3.87193C11.7714 3.83496 11.7801 3.69715 11.697 3.62452C11.6161 3.55168 11.4957 3.57661 11.4082 3.5963C11.2836 3.6243 9.31699 4.92543 5.50199 7.49946C4.94418 7.88315 4.43886 8.07018 3.98386 8.06033C3.48511 8.04961 2.52261 7.77771 1.8073 7.5454C0.932301 7.26037 0.234488 7.10965 0.295738 6.62555C0.326363 6.37355 0.674176 6.11565 1.33699 5.85205Z" fill="white"/>
</svg>
