<svg width="19" height="18" viewBox="0 0 19 18" fill="none" xmlns="http://www.w3.org/2000/svg">
<path d="M14.437 3.20918e-05C13.8459 0.00364485 13.2849 0.294594 13.0444 0.771317L13.0385 0.781049C10.3014 0.464928 7.58056 1.84804 6.52 3.94405C6.52 3.94405 3.616 9.69949 0.928886 9.62284C0.900062 9.62783 0.879682 9.64634 0.848886 9.65204C0.731922 9.67885 0.620076 9.72206 0.519997 9.77856C0.479037 9.80106 0.437295 9.81384 0.401478 9.83939C0.265096 9.93186 0.157719 10.0492 0.087404 10.1825C-0.154093 10.6612 0.122068 11.206 0.7037 11.4039L15.4207 16.4087C16.0038 16.607 16.6637 16.3838 16.9052 15.905C16.9703 15.77 16.9959 15.6238 16.9793 15.4793C16.9762 15.4404 16.9584 15.4054 16.9496 15.3673C16.9272 15.269 16.8854 15.1745 16.8252 15.0875C16.8097 15.0661 16.813 15.0402 16.7956 15.0194C14.8289 13.5145 17.7319 7.75668 17.7319 7.75668C17.9911 7.2412 18.1372 6.69966 18.1852 6.15328C17.7398 6.2403 17.2761 6.24341 16.829 6.16237C16.3819 6.08134 15.963 5.91826 15.6035 5.68537C15.2441 5.45247 14.9535 5.1558 14.7535 4.81757C14.5536 4.47935 14.4494 4.10835 14.4489 3.73237C14.449 3.31001 14.5798 2.8946 14.8291 2.52517C15.0784 2.15575 15.438 1.84443 15.8741 1.62046C16.1098 1.01052 15.7599 0.346781 15.0267 0.0973551C14.8331 0.0315342 14.6341 -0.00117241 14.437 3.20918e-05ZM6.29481 14.6398C6.12621 15.8201 6.99956 16.964 8.43407 17.3138C9.65707 17.6113 10.9264 17.2434 11.6726 16.4695L6.29481 14.6398Z" fill="#666666"/>
</svg>
