<svg width="20" height="27" viewBox="0 0 20 27" fill="none" xmlns="http://www.w3.org/2000/svg">
<path id="Vector" d="M2.5 26.25C1.8125 26.25 1.22375 26.005 0.733752 25.515C0.243752 25.025 -0.000831211 24.4367 2.12224e-06 23.75V11.25C2.12224e-06 10.5625 0.245002 9.97375 0.735002 9.48375C1.225 8.99375 1.81334 8.74917 2.5 8.75H3.75V6.25C3.75 4.52083 4.35959 3.04667 5.57875 1.8275C6.79792 0.608334 8.27167 -0.00083248 10 8.53825e-07C11.7292 8.53825e-07 13.2033 0.609584 14.4225 1.82875C15.6417 3.04792 16.2508 4.52167 16.25 6.25V8.75H17.5C18.1875 8.75 18.7763 8.995 19.2663 9.485C19.7563 9.975 20.0008 10.5633 20 11.25V23.75C20 24.4375 19.755 25.0263 19.265 25.5163C18.775 26.0063 18.1867 26.2508 17.5 26.25H2.5ZM10 20C10.6875 20 11.2763 19.755 11.7663 19.265C12.2563 18.775 12.5008 18.1867 12.5 17.5C12.5 16.8125 12.255 16.2238 11.765 15.7338C11.275 15.2438 10.6867 14.9992 10 15C9.3125 15 8.72375 15.245 8.23375 15.735C7.74375 16.225 7.49917 16.8133 7.5 17.5C7.5 18.1875 7.745 18.7763 8.235 19.2663C8.725 19.7563 9.31334 20.0008 10 20ZM6.25 8.75H13.75V6.25C13.75 5.20833 13.3854 4.32292 12.6563 3.59375C11.9271 2.86458 11.0417 2.5 10 2.5C8.95834 2.5 8.07292 2.86458 7.34375 3.59375C6.61459 4.32292 6.25 5.20833 6.25 6.25V8.75Z" fill="white"/>
</svg>
